<svg xmlns="http://www.w3.org/2000/svg" xmlns:xlink="http://www.w3.org/1999/xlink" width="500" zoomAndPan="magnify" viewBox="0 0 375 374.999991" height="500" preserveAspectRatio="xMidYMid meet" version="1.0"><path fill="#6666ff" d="M 181.582031 1.546875 L 26.304688 84.648438 L 187.316406 171.390625 L 346.785156 83.738281 L 193.234375 1.820312 C 192.355469 1.304688 191.425781 0.910156 190.445312 0.628906 C 189.464844 0.351562 188.464844 0.199219 187.445312 0.175781 C 186.425781 0.152344 185.417969 0.257812 184.425781 0.488281 C 183.433594 0.722656 182.488281 1.074219 181.582031 1.546875 Z M 181.582031 1.546875 " fill-opacity="1" fill-rule="nonzero"/><path fill="#6666ff" d="M 356.160156 291.261719 C 357.140625 290.738281 358.03125 290.09375 358.835938 289.328125 C 359.640625 288.5625 360.328125 287.699219 360.898438 286.746094 C 361.46875 285.792969 361.898438 284.777344 362.191406 283.707031 C 362.484375 282.632812 362.628906 281.542969 362.621094 280.429688 L 362.621094 103.125 L 199.789062 192.6875 L 199.789062 374.726562 Z M 356.160156 291.261719 " fill-opacity="1" fill-rule="nonzero"/><path fill="#6666ff" d="M 187.410156 185.40625 L 187.316406 185.316406 L 187.316406 185.40625 Z M 187.410156 185.40625 " fill-opacity="1" fill-rule="nonzero"/><path fill="#6666ff" d="M 12.105469 280.066406 C 12.101562 281.183594 12.246094 282.28125 12.539062 283.359375 C 12.832031 284.4375 13.261719 285.457031 13.832031 286.417969 C 14.398438 287.378906 15.085938 288.25 15.890625 289.023438 C 16.695312 289.800781 17.585938 290.457031 18.566406 290.988281 L 175.121094 374.726562 L 175.121094 192.6875 L 12.105469 104.855469 Z M 12.105469 280.066406 " fill-opacity="1" fill-rule="nonzero"/><path fill="#6666ff" d="M 181.582031 1.546875 L 26.304688 84.648438 L 187.316406 171.390625 L 346.785156 83.738281 L 193.234375 1.820312 C 192.355469 1.304688 191.425781 0.910156 190.445312 0.628906 C 189.464844 0.351562 188.464844 0.199219 187.445312 0.175781 C 186.425781 0.152344 185.417969 0.257812 184.425781 0.488281 C 183.433594 0.722656 182.488281 1.074219 181.582031 1.546875 Z M 181.582031 1.546875 " fill-opacity="1" fill-rule="nonzero"/><path fill="#6666ff" d="M 356.160156 291.261719 C 357.140625 290.738281 358.03125 290.09375 358.835938 289.328125 C 359.640625 288.5625 360.328125 287.699219 360.898438 286.746094 C 361.46875 285.792969 361.898438 284.777344 362.191406 283.707031 C 362.484375 282.632812 362.628906 281.542969 362.621094 280.429688 L 362.621094 103.125 L 199.789062 192.6875 L 199.789062 374.726562 Z M 356.160156 291.261719 " fill-opacity="1" fill-rule="nonzero"/><path fill="#6666ff" d="M 187.410156 185.40625 L 187.316406 185.316406 L 187.316406 185.40625 Z M 187.410156 185.40625 " fill-opacity="1" fill-rule="nonzero"/><path fill="#6666ff" d="M 12.105469 280.066406 C 12.101562 281.183594 12.246094 282.28125 12.539062 283.359375 C 12.832031 284.4375 13.261719 285.457031 13.832031 286.417969 C 14.398438 287.378906 15.085938 288.25 15.890625 289.023438 C 16.695312 289.800781 17.585938 290.457031 18.566406 290.988281 L 175.121094 374.726562 L 175.121094 192.6875 L 12.105469 104.855469 Z M 12.105469 280.066406 " fill-opacity="1" fill-rule="nonzero"/></svg>